<?xml version="1.0" encoding="utf-8"?>
<!-- Generator: Adobe Illustrator 22.0.0, SVG Export Plug-In . SVG Version: 6.00 Build 0)  -->
<svg version="1.1" id="Warstwa_1" xmlns="http://www.w3.org/2000/svg" xmlns:xlink="http://www.w3.org/1999/xlink" x="0px" y="0px"
	 viewBox="0 0 173.2 200" style="enable-background:new 0 0 173.2 200;" xml:space="preserve">
<style type="text/css">
	.st0{display:none;fill:#ED1C24;}
	.st1{display:none;fill:#FFFFFF;}
	.st2{display:none;opacity:4.000000e-02;stroke:#FFFFFF;stroke-miterlimit:10;enable-background:new    ;}
	.st3{display:none;opacity:8.000000e-02;stroke:#FFFFFF;stroke-miterlimit:10;enable-background:new    ;}
	.st4{display:none;fill-opacity:0;}
</style>
<polygon class="st0" points="0,150 0,50 86.6,0 173.2,50 173.2,150 86.6,200 "/>
<polygon class="st1" points="86.6,133.3 57.7,116.7 57.7,83.3 86.6,66.7 115.5,83.3 144.3,66.7 86.6,33.3 28.9,66.7 28.9,133.3 
	86.6,166.7 144.3,133.3 115.5,116.7 "/>
<polygon class="st2" points="0,50 86.6,100 86.6,0 "/>
<polygon class="st2" points="0,150 86.6,200 86.6,100 "/>
<polygon class="st3" points="86.6,100 173.2,150 173.2,50 "/>
<polygon class="st4" points="86.6,100 0,50 0,150 "/>
<polygon class="st3" points="173.2,150 86.6,100 86.6,200 "/>
<polygon class="st3" points="173.2,50 86.6,0 86.6,100 "/>
<image style="overflow:visible;" width="1200" height="1236" xlink:href="../../../../../../../../../../1200px-Coat_of_arms_of_Malawi.svg.png"  transform="matrix(0.1442 0 0 0.1474 0 8)">
</image>
</svg>
